<svg width="269" height="345" viewBox="0 0 269 345" fill="none" xmlns="http://www.w3.org/2000/svg">
<path fill-rule="evenodd" clip-rule="evenodd" d="M169.876 60.6264C166.319 65.2707 163.748 70.3348 162.114 75.5844C160.271 75.2302 158.429 74.955 156.586 74.7765C145.531 73.7142 134.306 75.7396 122.778 80.8965L142.964 54.5435C147.052 49.2058 154.399 47.5883 160.412 50.3318L171.097 36.3839L165.038 26.7611C161.007 27.8946 156.486 27.2595 152.841 24.6342C146.673 20.1903 145.362 11.7709 149.914 5.8288C154.466 -0.113282 163.157 -1.32907 169.325 3.11487C175.493 7.55881 176.804 15.9782 172.252 21.9203C171.898 22.3817 171.513 22.8041 171.114 23.2072L179.669 36.798L166.311 54.2379L171.85 58.2284C171.173 59.0047 170.51 59.799 169.876 60.6264ZM245.99 154.46C245.411 146.035 243.176 138.284 239.267 131.113C243.963 128.083 248.209 124.243 251.758 119.61C252.391 118.783 252.985 117.937 253.556 117.084L262.533 123.55C268.857 128.106 270.202 136.744 265.535 142.837L245.377 169.153C246.105 164.06 246.313 159.166 245.99 154.46ZM165.092 235.675C167.676 236.106 170.598 236.514 173.764 236.818C179.933 237.411 186.779 237.59 193.541 236.827L148.885 295.125C144.216 301.221 135.301 302.465 128.976 297.909L121.531 292.545L165.092 235.675ZM71.0094 148.481L26.3138 206.833C21.6451 212.928 22.9886 221.563 29.316 226.12L36.7619 231.484L80.3269 174.609C76.9478 168.03 72.8521 158.559 71.0094 148.481ZM10.1656 310.298C20.2461 317.559 34.5802 315.556 42.0183 305.845L110.768 216.09L115.351 219.391L46.6009 309.146C39.1628 318.857 41.3234 332.744 51.4038 340.005C61.4843 347.266 75.8184 345.262 83.2565 335.551L160.421 234.81C159.546 234.631 158.746 234.458 158.048 234.301C155.156 233.647 152.487 232.448 150.113 230.739C143.279 225.816 140.081 217.465 141.967 209.463C143.234 204.087 146.589 199.524 151.417 196.614C156.244 193.704 161.967 192.794 167.528 194.054C176.084 195.991 186.072 196.234 190.144 195.534C195.635 186.029 199.144 178.308 201.175 171.968L204.945 174.001C202.664 180.874 198.861 189.099 193.005 199.061C190.345 200.082 184.178 200.273 177.592 199.718L174.614 232.742C190.614 234.216 212.442 232.836 221.977 216.819C242.656 182.083 247.232 154.852 235.586 133.265C218.692 142.248 197.143 141.472 180.602 129.558C164.066 117.644 157.075 97.8616 161.063 79.5809C136.388 75.0041 110.825 87.1182 82.5058 116.351C69.4482 129.829 74.3896 150.493 80.4666 164.922L112.209 152.618C109.759 146.665 108.165 140.884 108.407 138.118C116.55 129.805 123.573 123.898 129.698 119.794L132.795 122.707C127.123 126.424 120.514 131.912 112.716 139.756C113.2 143.737 116.324 152.941 120.709 160.325C123.56 165.126 124.314 170.701 122.836 176.023C121.357 181.346 117.823 185.781 112.881 188.508C105.525 192.57 96.3569 192.013 89.5237 187.091C87.1514 185.382 85.1961 183.25 83.7149 180.754C83.3577 180.154 82.9565 179.461 82.5275 178.7L5.36271 279.439C-2.07683 289.15 0.0851502 303.037 10.1656 310.298ZM140.346 130.29L153.71 139.916L141.312 156.1L127.949 146.474L140.346 130.29ZM191.511 167.147L179.113 183.331L147.708 160.708L160.106 144.524L191.511 167.147ZM87.4134 178.711C86.1723 176.62 84.3959 173.445 82.5494 169.57L114.286 157.268C115.147 159.046 116.062 160.774 117.009 162.368C121.724 170.307 118.92 180.403 110.747 184.915C104.68 188.266 97.3577 187.597 92.0593 183.781C90.2208 182.457 88.6275 180.755 87.4134 178.711ZM169.428 232.151L172.405 199.132C170.401 198.847 168.43 198.496 166.584 198.077C157.383 195.993 148.228 201.513 146.135 210.405C144.579 217.006 147.355 223.61 152.652 227.427C154.49 228.751 156.63 229.739 158.999 230.276C161.421 230.824 165.069 231.556 169.428 232.151ZM209.756 30.4374C211.311 30.2214 212.762 31.2673 212.998 32.7721L214.285 41.034C206.623 40.4929 198.918 41.6208 191.786 44.3494L190.474 35.9216C190.238 34.4155 191.308 33.0182 192.864 32.801L209.756 30.4374ZM183.141 126.249C203.855 141.171 233.036 137.089 248.321 117.135C263.606 97.1801 259.206 68.9102 238.492 53.9877C217.781 39.0683 188.597 43.1472 173.313 63.1019C158.028 83.0564 162.43 111.329 183.141 126.249ZM180.835 67.6884C189.794 55.9909 209.075 58.3874 225.858 70.4786C242.644 82.5686 250.578 99.7767 241.619 111.474C232.659 123.172 210.196 124.931 193.412 112.84C176.627 100.749 171.876 79.3858 180.835 67.6884ZM201.266 85.6913L215.529 83.6968L215.849 85.7535L201.586 87.748L201.266 85.6913ZM216.855 92.2068L202.592 94.2013L202.912 96.258L217.175 94.2635L216.855 92.2068ZM193.886 91.0763L224.216 86.8381L224.536 88.8948L194.206 93.133L193.886 91.0763Z" fill="#E6D5FC"/>
</svg>
