<svg width="64" height="98" viewBox="0 0 64 98" fill="none" xmlns="http://www.w3.org/2000/svg">
<path d="M49.1597 52.2157C48.9029 51.9569 48.6461 51.8274 48.3893 51.698C48.1325 51.5686 47.7473 51.4392 47.2337 51.3097V48.9802C47.7473 49.1096 48.0041 49.4978 48.1325 49.8861C48.2609 50.2744 48.5177 50.5332 48.9029 50.5332C49.1597 50.5332 49.2881 50.4038 49.4165 50.2744C49.5449 50.145 49.6733 50.0155 49.6733 49.7567C49.6733 49.6273 49.6733 49.3684 49.5449 49.239C49.4165 48.9802 49.2881 48.8507 49.1597 48.5919C48.9029 48.333 48.6461 48.2036 48.3893 48.0742C48.1325 47.9448 47.7473 47.8154 47.3621 47.8154V46.9094C47.3621 46.6506 47.2337 46.3917 46.9769 46.3917C46.7201 46.3917 46.5917 46.5211 46.5917 46.9094V47.6859C45.8212 47.8154 45.1792 47.9448 44.794 48.4625C44.4088 48.8507 44.152 49.3684 44.152 50.0155C44.152 50.5332 44.2804 50.9215 44.4088 51.1803C44.6656 51.4392 44.9224 51.698 45.1792 51.9569C45.5644 52.0863 45.9496 52.3451 46.4632 52.4745V55.063C46.2064 54.9336 45.9496 54.9336 45.8212 54.8041C45.6928 54.6747 45.5644 54.5453 45.436 54.4159C45.3076 54.2865 45.3076 54.0276 45.1792 53.7688C45.1792 53.6393 45.0508 53.5099 44.9224 53.3805C44.794 53.2511 44.6656 53.2511 44.5372 53.2511C44.2804 53.2511 44.152 53.3805 44.0236 53.5099C43.8952 53.6393 43.7668 53.7688 43.7668 54.0276C43.7668 54.2864 43.7668 54.5453 43.8952 54.8041C44.0236 55.063 44.152 55.3218 44.4088 55.5807C44.6656 55.8395 44.9224 55.9689 45.1792 56.2278C45.5644 56.3572 45.9496 56.4866 46.3348 56.4866V57.522C46.3348 57.6514 46.3348 57.7808 46.4632 57.9103C46.4632 58.0397 46.5916 58.0397 46.7201 58.0397C46.8485 58.0397 46.9769 58.0397 46.9769 57.9103C46.9769 57.7808 47.1053 57.6514 47.1053 57.3926V56.4866C47.6189 56.4866 48.1325 56.3572 48.5177 56.0984C48.9029 55.8395 49.1597 55.5807 49.4165 55.1924C49.6733 54.8041 49.6733 54.4159 49.6733 54.0276C49.6733 53.6393 49.6733 53.3805 49.5449 53.1217C49.5449 52.7334 49.4165 52.4746 49.1597 52.2157ZM46.5917 51.3097C46.2064 51.1803 45.9496 51.0509 45.8212 50.9215C45.6928 50.7921 45.5644 50.5332 45.5644 50.2744C45.5644 50.0155 45.6928 49.7567 45.8212 49.6273C45.9496 49.4978 46.2064 49.3684 46.5917 49.239V51.3097ZM48.1325 54.9336C47.8757 55.1924 47.6189 55.3218 47.2337 55.4513V52.9922C47.6189 53.1217 47.8757 53.2511 48.1325 53.5099C48.3893 53.6393 48.3893 53.8982 48.3893 54.2865C48.5177 54.4159 48.3893 54.6747 48.1325 54.9336ZM16.0318 63.346C15.6465 64.1225 15.3897 64.6402 15.3897 64.7696C15.1329 65.1579 14.7477 65.4167 14.3625 65.4167C14.2341 65.4167 13.9773 65.4167 13.8489 65.2873C13.3353 65.0285 13.0785 64.3814 13.3353 63.7342C13.3353 63.7342 13.5921 63.0871 14.1057 62.3106C14.3625 61.7929 15.1329 61.5341 15.6465 61.9224C16.1602 62.0518 16.417 62.8283 16.0318 63.346ZM19.2418 56.7455C19.7554 57.1337 19.7554 57.9103 19.3702 58.2985C19.1134 58.6868 18.8566 59.0751 18.4714 59.4633C18.2146 59.7222 17.9578 59.981 17.5726 59.981C17.3158 59.981 17.059 59.8516 16.9306 59.7222C16.417 59.3339 16.2886 58.6868 16.6738 58.1691C17.059 57.7808 17.3158 57.2632 17.701 56.8749C18.0862 56.4866 18.7282 56.3572 19.2418 56.7455ZM25.2768 55.5807C25.662 56.0984 25.5336 56.7455 25.02 57.1337C24.7632 57.2632 24.6348 57.3926 24.3779 57.3926C23.9927 57.3926 23.7359 57.2632 23.4791 56.8749L23.3507 56.7455C22.9655 56.2278 22.5803 56.0984 22.3235 56.0984C22.1951 56.0984 22.1951 56.0984 22.0667 56.0984C21.4247 56.2278 20.9111 55.8395 20.7827 55.1924C20.6543 54.5453 21.0395 54.0276 21.6815 53.8982C21.9383 53.8982 22.0667 53.8982 22.3235 53.8982C23.0939 53.8982 24.1211 54.157 25.1484 55.4513L25.2768 55.5807ZM29.0005 61.9224C29.3857 62.44 29.1289 63.0871 28.6152 63.4754C28.4868 63.6048 28.23 63.6048 27.9732 63.6048C27.588 63.6048 27.2028 63.4754 27.0744 63.0871C26.5608 62.3106 26.0472 61.4047 25.5336 60.4987C25.2768 59.981 25.4052 59.2045 25.9188 58.9456C26.4324 58.6868 27.2028 58.8162 27.4596 59.3339C28.1016 60.3693 28.4868 61.1458 29.0005 61.9224ZM40.0431 63.0871C39.4011 63.9931 38.6307 64.7696 37.9887 65.4167C37.7318 65.6756 37.475 65.6756 37.2182 65.6756C36.9614 65.6756 36.5762 65.5462 36.4478 65.2873C36.0626 64.8991 36.0626 64.1225 36.4478 63.7342C36.9614 63.2166 37.6034 62.44 38.2455 61.6635C38.6307 61.1458 39.2727 61.0164 39.7863 61.4047C40.2999 61.9223 40.4283 62.5695 40.0431 63.0871ZM34.6502 66.5815C34.6502 67.2286 34.265 67.7463 33.623 67.7463C33.4946 67.7463 33.3661 67.7463 33.2377 67.7463C32.2105 67.7463 31.1833 67.3581 30.1561 66.711C29.6425 66.3227 29.5141 65.6756 29.8993 65.1579C30.2845 64.6402 30.9265 64.5108 31.4401 64.899C32.0821 65.4167 32.7241 65.5462 33.3662 65.5462C34.0082 65.5462 34.6502 66.0639 34.6502 66.5815ZM43.2532 58.0397C42.9964 58.428 42.7396 58.9456 42.4828 59.3339C42.226 59.7222 41.8407 59.8516 41.5839 59.8516C41.3271 59.8516 41.1987 59.8516 41.0703 59.7222C40.5567 59.4633 40.4283 58.6868 40.6851 58.1691C40.9419 57.7808 41.1987 57.2632 41.4555 56.8749C41.7123 56.3572 42.4828 56.0984 42.9964 56.4866C43.3816 56.7455 43.51 57.522 43.2532 58.0397ZM31.0549 36.4262C39.9147 36.4262 46.9769 29.1786 46.9769 20.2485C46.9769 16.4953 45.9496 14.2951 45.0508 13.2597C42.4828 9.24763 34.0082 8.98878 31.4401 8.98878C31.1833 8.98878 31.0549 8.98878 31.0549 8.98878C22.4519 8.98878 18.7282 11.7066 17.5726 12.8714L17.4442 13.0009C17.1874 13.2597 17.1874 13.3891 17.1874 13.3891C16.2886 14.5539 15.2613 16.6247 15.2613 20.5073C15.2613 29.1786 22.3235 36.4262 31.0549 36.4262ZM18.0862 13.9068C18.0862 13.9068 18.2146 13.7774 18.343 13.648L18.4714 13.5185C19.3702 12.742 22.8371 10.0242 31.1833 10.0242C31.1833 10.0242 31.3117 10.0242 31.5685 10.0242C33.2377 10.0242 41.9691 10.1536 44.2804 13.7774C44.9224 14.5539 45.9496 16.4953 45.9496 20.1191C45.9496 28.4021 39.4011 35.132 31.1833 35.132C22.9655 35.2614 16.417 28.5315 16.417 20.2485C16.417 16.6247 17.4442 14.6833 18.0862 13.9068ZM59.3035 51.8274C59.3035 51.8274 58.4047 51.698 58.2763 51.698C58.0195 51.698 57.7627 51.698 57.6343 51.698C57.5059 51.698 57.5059 51.698 57.3775 51.698V40.5677C57.3775 40.3089 57.1207 39.9206 56.8639 39.9206L53.2686 39.1441V22.8369C53.2686 21.4133 52.113 20.2485 50.7005 20.2485H50.1869C49.8017 10.1536 41.4555 2 31.0549 2C20.7827 2 12.3081 10.1536 12.0513 20.2485H11.5377C10.1252 20.2485 8.96959 21.4133 8.96959 22.8369V39.4029C8.58438 40.4383 8.19917 41.3443 7.94237 42.5091L5.75952 43.415C5.50271 43.5444 5.37431 43.8033 5.37431 44.0621V51.698C5.1175 51.698 4.47549 51.8274 4.47549 51.8274C2.93465 51.9569 1.77903 53.3805 2.03583 54.9336L2.80625 61.4047C2.93465 62.8283 4.09028 63.8637 5.50271 63.8637V79.7826C5.50271 80.0414 5.63112 80.1708 5.75952 80.3003C5.88792 80.4297 6.01632 80.4297 6.14473 80.4297C6.27313 80.4297 6.27313 80.4297 6.40153 80.4297L16.0318 76.6764V91.6894V95.4426H30.9265H32.5957H47.4905V90.2657C47.4905 90.1363 47.4905 90.1363 47.4905 90.0069V74.8645L56.7355 77.0647H56.8639C56.9923 77.0647 57.1207 77.0647 57.2491 76.9353C57.3775 76.8059 57.5059 76.6764 57.5059 76.4176V63.8637C57.6343 63.8637 57.8911 63.8637 58.1479 63.9931C58.2763 63.9931 58.4047 63.9931 58.4047 63.9931C59.8172 63.9931 60.9728 62.9577 61.2296 61.5341L62 55.063C62 53.3805 60.8444 51.9569 59.3035 51.8274ZM51.471 22.8369V36.4262C50.1869 34.6143 48.5177 32.9318 46.5917 31.5082C48.5177 28.7903 49.8017 25.5548 50.0585 22.0604H50.7005C51.0858 22.0604 51.471 22.4487 51.471 22.8369ZM31.0549 3.81191C40.5567 3.81191 48.2609 11.4478 48.2609 20.7662C48.2609 30.0846 40.5567 37.7204 31.0549 37.7204C21.5531 37.591 13.8489 30.0846 13.8489 20.7662C13.8489 11.4478 21.5531 3.81191 31.0549 3.81191ZM10.7672 22.8369C10.7672 22.3192 11.1524 21.931 11.6661 21.931H12.3081C12.5649 25.4254 13.7205 28.6609 15.6465 31.3788C13.7205 32.8024 12.0513 34.4849 10.7672 36.2968V22.8369ZM16.6738 32.8024C20.1406 36.8145 25.4052 39.4029 31.1833 39.4029C36.9614 39.4029 42.0975 36.8145 45.5644 32.8024C47.7473 34.3555 49.5449 36.2968 50.7005 38.3676L45.5644 37.2028H45.436C45.3076 37.2028 45.1792 37.2028 45.1792 37.2028L31.6969 43.5444L19.2418 38.2381C19.1134 38.2381 19.1134 38.2381 18.985 38.2381C18.8566 38.2381 18.8566 38.2381 18.7282 38.2381L9.99681 41.7325C11.024 38.2381 13.4637 35.132 16.6738 32.8024ZM4.21868 61.1458L3.44826 54.6747C3.31986 54.0276 3.83347 53.3805 4.60389 53.2511C4.60389 53.2511 5.50271 53.1217 5.63112 53.1217C5.75952 53.1217 6.01632 53.1217 6.14473 53.1217C8.45598 53.1217 10.2536 54.8041 10.5104 57.1337C10.7672 59.3339 9.3548 61.4047 7.30035 61.9224C7.04355 61.9224 6.27313 62.0518 5.63112 62.1812C4.8607 62.3106 4.21868 61.7929 4.21868 61.1458ZM30.6697 93.6307H17.5726V91.56H30.6697V93.6307ZM17.5726 89.7481C17.9578 86.3831 20.7827 83.6652 24.1211 83.6652C27.4596 83.6652 30.2845 86.2537 30.6697 89.7481H17.5726ZM24.1211 81.9827C21.4247 81.9827 19.1134 83.277 17.5726 85.3477V75.8999L18.8566 75.3822L30.7981 80.4297V85.4771C29.3857 83.4064 26.946 81.9827 24.1211 81.9827ZM32.3389 85.6066V80.5591L45.5644 74.4763V85.3477C44.0236 83.277 41.7123 81.9827 39.0159 81.9827C36.191 81.9827 33.7514 83.4064 32.3389 85.6066ZM45.5644 89.7481H32.4673C32.8525 86.3831 35.6774 83.6652 39.0159 83.6652C42.3544 83.7946 45.1792 86.3831 45.5644 89.7481ZM45.5644 93.6307H32.4673V91.56H45.5644V93.6307ZM55.9651 75.3822L45.6928 72.9232H45.5644C45.436 72.9232 45.436 72.9232 45.3076 72.9232L31.8253 79.1355L19.3702 73.8292C19.2418 73.8292 19.2418 73.8292 19.1134 73.8292C18.985 73.8292 18.985 73.8292 18.8566 73.8292L6.78674 78.4883V63.7342C7.42876 63.6048 7.68556 63.6048 7.81396 63.6048C10.6388 62.8283 12.4365 60.1104 12.1797 57.1337C11.7945 54.2864 9.61161 52.0863 6.78674 51.8274V44.5798L9.4832 43.5444H9.61161L19.1134 39.7912L31.6969 45.0975C31.8253 45.0975 31.8253 45.0975 31.9537 45.0975C32.0821 45.0975 32.2105 45.0975 32.2105 45.0975L45.8212 38.8852L56.2219 41.3443V52.2157C53.9106 52.8628 52.113 54.8041 51.8562 57.3926C51.471 60.3693 53.397 63.0871 56.2219 63.8637V75.3822H55.9651ZM60.2024 54.8041L59.4319 61.2752C59.3035 61.9224 58.7899 62.3106 58.2763 62.3106H58.1479C57.5059 62.1812 56.7355 62.0518 56.4787 62.0518C54.4242 61.4047 53.0118 59.4633 53.2686 57.2632C53.5254 54.8041 55.7083 52.9922 58.1479 53.3805C58.2763 53.3805 59.1751 53.5099 59.1751 53.5099C59.8172 53.5099 60.3308 54.157 60.2024 54.8041Z" fill="white"/>
</svg>
