<svg width="247.811875" height="279.03749999999997" viewBox="0 0 373 420" class="css-1j8o68f"><defs id="SvgjsDefs1210"></defs><g id="SvgjsG1211" featurekey="rootContainer" transform="matrix(1,0,0,1,0,0)" fill="#ffc254"><path xmlns="http://www.w3.org/2000/svg" fill-rule="evenodd" d=" M0,0 H373 V420 H0,0 z M2,2 H371 V418 H2,2 z M6,6 H367 V414 H6 z M8,8 H365 V412 H6,8 z "></path></g><g id="SvgjsG1212" featurekey="symbolFeature-0" transform="matrix(0.8289773418155386,0,0,0.8289773418155386,63.99992706951162,50.000235887636535)" fill="#ffc254"><g xmlns="http://www.w3.org/2000/svg"><path d="M117.139,169.975c-2.233,0-4.303-0.092-6.138-0.224l-26.63,44.121l5.565,3.359c4.727,2.853,10.875,1.335,13.729-3.394   l27.299-45.229C126.289,169.629,121.491,169.975,117.139,169.975C117.139,169.975,117.14,169.975,117.139,169.975z"></path><path d="M155.826,89.042c3.214,4.91,5.297,10.356,6.268,16.404c0.542,3.378,0.725,6.929,0.558,10.66l12.323-20.416   c2.853-4.727,1.333-10.876-3.394-13.729l-6.709-4.049c-0.342,0.656-0.7,1.308-1.087,1.95   C161.615,83.456,158.905,86.526,155.826,89.042z"></path><path d="M39.38,113.276l-27.323,45.27c-2.854,4.729-1.335,10.875,3.394,13.729l5.565,3.359l26.632-44.124   C44.844,126.99,41.345,120.431,39.38,113.276z"></path><path d="M98.166,54.273c0.79-3.907,2.247-7.745,4.421-11.348c0.388-0.642,0.798-1.262,1.219-1.87l-4.14-2.499l8.166-13.53   l-6.893-9.227c0.252-0.319,0.493-0.651,0.709-1.009c2.783-4.61,1.301-10.603-3.309-13.386c-4.61-2.783-10.603-1.301-13.386,3.309   s-1.301,10.603,3.309,13.386c2.724,1.644,5.927,1.789,8.669,0.69l4.881,6.533L95.28,36.143c-4.387-1.565-9.414,0.114-11.913,4.255   l-12.34,20.445c7.712-4.527,15.422-6.77,23.221-6.77C95.548,54.074,96.854,54.145,98.166,54.273z"></path><path d="M7.719,234.434c7.534,4.547,17.419,2.104,21.966-5.43l42.028-69.633l3.425,2.067L33.11,231.071   c-4.547,7.534-2.104,17.419,5.43,21.966v0c7.534,4.547,17.419,2.104,21.966-5.43l47.172-78.156   c-0.624-0.069-1.195-0.138-1.693-0.203c-2.066-0.272-4.012-0.953-5.786-2.023c-5.108-3.083-7.904-8.896-7.123-14.809   c0.524-3.973,2.563-7.503,5.742-9.941c3.179-2.438,7.118-3.493,11.09-2.969c6.111,0.806,13.109,0.288,15.908-0.501   c3.2-7.25,5.134-13.073,6.128-17.795l2.772,1.207c-1.133,5.125-3.239,11.333-6.663,18.938c-1.791,0.923-6.089,1.489-10.73,1.545   l0.137,24.071c11.283-0.046,26.448-2.559,32.037-14.795c12.122-26.537,13.491-46.533,3.901-61.323   c-11.206,7.664-26.321,8.6-38.683,1.139C102.356,84.531,96.14,70.721,97.7,57.234C80.145,55.64,63.09,66.169,45.258,89.26   c-8.222,10.646-3.38,25.235,1.837,35.24l21.362-11.095c-2.113-4.132-3.615-8.199-3.632-10.214   c5.134-6.573,9.646-11.329,13.652-14.72l2.36,1.89c-3.715,3.08-7.966,7.504-12.89,13.714c0.606,2.843,3.408,9.277,6.969,14.309   c2.315,3.271,3.217,7.247,2.541,11.196c-0.676,3.949-2.849,7.399-6.12,9.713c-4.869,3.446-11.315,3.68-16.422,0.598   c-1.773-1.07-3.283-2.475-4.486-4.176c-0.29-0.409-0.617-0.882-0.968-1.402L2.289,212.468   C-2.259,220.002,0.185,229.887,7.719,234.434z M86.625,95.316l9.988,6.028l-7.579,12.556l-9.988-6.028L86.625,95.316z    M124.865,118.397l-7.579,12.556l-23.472-14.167l7.579-12.556L124.865,118.397z"></path><path d="M48.863,127.714c1.551,2.672,3.006,4.843,4.014,6.268c0.986,1.393,2.214,2.512,3.588,3.341   c3.96,2.39,9.123,2.365,13.139-0.478c5.41-3.828,6.692-11.318,2.863-16.728c-0.769-1.086-1.525-2.271-2.246-3.496L48.863,127.714z"></path><path d="M113.795,166.904l-0.137-24.067c-1.42-0.067-2.821-0.184-4.14-0.358c-6.571-0.867-12.6,3.757-13.466,10.328   c-0.644,4.878,1.74,9.458,5.699,11.848c1.374,0.829,2.936,1.395,4.628,1.618C108.109,166.501,110.708,166.777,113.795,166.904z"></path><path d="M130.859,19.802c-0.266-1.071-1.351-1.726-2.423-1.462l-11.649,2.881c-1.073,0.265-1.727,1.349-1.461,2.421l1.483,5.999   c4.802-2.467,10.112-3.817,15.504-3.958L130.859,19.802z"></path><path d="M116.267,89.424c15.482,9.345,35.605,4.369,44.949-11.112c9.344-15.481,4.37-35.604-11.112-44.949   c-15.479-9.343-35.605-4.369-44.948,11.112C95.812,59.956,100.788,80.081,116.267,89.424z M110.722,47.267   c5.477-9.075,19.115-8.682,31.659-1.11c12.545,7.571,19.247,19.455,13.77,28.53s-21.061,11.906-33.605,4.334   C110.001,71.45,105.245,56.342,110.722,47.267z"></path><rect x="126.242" y="57.619" transform="matrix(0.9708 -0.24 0.24 0.9708 -10.1717 33.2192)" width="10.132" height="1.508"></rect><rect x="127.74" y="63.677" transform="matrix(0.9708 -0.24 0.24 0.9708 -11.5817 33.7554)" width="10.132" height="1.508"></rect><rect x="121.283" y="60.648" transform="matrix(0.9708 -0.2399 0.2399 0.9708 -10.8754 33.4798)" width="21.545" height="1.508"></rect><path d="M265.521,161.932c9.113,0,16.5-7.387,16.5-16.5s-7.387-16.5-16.5-16.5c-9.113,0-16.5,7.387-16.5,16.5   S256.409,161.932,265.521,161.932z M265.521,132.932c6.893,0,12.5,5.607,12.5,12.5s-5.607,12.5-12.5,12.5s-12.5-5.607-12.5-12.5   S258.629,132.932,265.521,132.932z"></path><polygon points="244.598,114.268 247.021,112.994 249.445,114.268 248.982,111.569 250.943,109.658 248.233,109.264    247.021,106.809 245.81,109.264 243.1,109.658 245.061,111.569  "></polygon><polygon points="174.31,151.703 171.6,152.096 173.561,154.008 173.098,156.706 175.521,155.432 177.945,156.706 177.482,154.008    179.443,152.096 176.733,151.703 175.521,149.247  "></polygon><polygon points="120.445,240.432 119.233,237.977 118.021,240.432 115.312,240.826 117.272,242.737 116.81,245.436    119.233,244.161 121.657,245.436 121.194,242.737 123.154,240.826  "></polygon><polygon points="200.598,54.206 203.021,52.932 205.445,54.206 204.982,51.508 206.943,49.596 204.233,49.203 203.021,46.747    201.81,49.203 199.1,49.596 201.061,51.508  "></polygon><polygon points="209.386,96.936 211.81,95.661 214.233,96.936 213.77,94.237 215.731,92.326 213.021,91.932 211.81,89.477    210.598,91.932 207.888,92.326 209.849,94.237  "></polygon><polygon points="290.021,233.432 289.558,236.131 291.982,234.857 294.405,236.131 293.943,233.432 295.903,231.521    293.194,231.127 291.982,228.672 290.77,231.127 288.061,231.521  "></polygon><polygon points="284.386,76.936 286.81,75.661 289.233,76.936 288.77,74.237 290.731,72.326 288.021,71.932 286.81,69.477    285.598,71.932 282.888,72.326 284.849,74.237  "></polygon><path d="M205.021,179.932c-34.242,0-62,27.758-62,62s27.758,62,62,62c34.242,0,62-27.758,62-62S239.263,179.932,205.021,179.932z    M163.547,209.618c1.082,0,1.958,0.877,1.958,1.958s-0.877,1.958-1.958,1.958c-1.082,0-1.958-0.877-1.958-1.958   S162.466,209.618,163.547,209.618z M148.964,233.993c0-1.082,0.877-1.958,1.958-1.958c1.082,0,1.958,0.877,1.958,1.958   c0,1.082-0.877,1.958-1.958,1.958C149.841,235.952,148.964,235.075,148.964,233.993z M153.589,249.035   c-1.082,0-1.958-0.877-1.958-1.958s0.877-1.958,1.958-1.958s1.958,0.877,1.958,1.958S154.67,249.035,153.589,249.035z    M155.089,222.118c-1.082,0-1.958-0.877-1.958-1.958s0.877-1.958,1.958-1.958s1.958,0.877,1.958,1.958   S156.17,222.118,155.089,222.118z M159.339,235.952c-1.082,0-1.958-0.877-1.958-1.958c0-1.082,0.877-1.958,1.958-1.958   s1.958,0.877,1.958,1.958C161.297,235.075,160.42,235.952,159.339,235.952z M165.589,228.493c-2.485,0-4.5-2.015-4.5-4.5   c0-2.485,2.015-4.5,4.5-4.5s4.5,2.015,4.5,4.5C170.089,226.479,168.074,228.493,165.589,228.493z M174.839,210.66   c-3.36,0-6.083-2.724-6.083-6.083s2.724-6.083,6.083-6.083s6.083,2.724,6.083,6.083S178.199,210.66,174.839,210.66z    M182.589,194.285c-1.082,0-1.958-0.877-1.958-1.958s0.877-1.958,1.958-1.958s1.958,0.877,1.958,1.958   S183.67,194.285,182.589,194.285z M192.589,194.66c-1.703,0-3.083-1.38-3.083-3.083s1.38-3.083,3.083-3.083s3.083,1.38,3.083,3.083   S194.292,194.66,192.589,194.66z M200.255,186.202c0-1.082,0.877-1.958,1.958-1.958s1.958,0.877,1.958,1.958   s-0.877,1.958-1.958,1.958S200.255,187.283,200.255,186.202z M206.839,207.827c-2.485,0-4.5-2.015-4.5-4.5s2.015-4.5,4.5-4.5   s4.5,2.015,4.5,4.5S209.324,207.827,206.839,207.827z M211.714,195.16c-2.14,0-3.875-1.735-3.875-3.875   c0-2.14,1.735-3.875,3.875-3.875c2.14,0,3.875,1.735,3.875,3.875C215.589,193.425,213.854,195.16,211.714,195.16z M222.255,198.785   c-1.082,0-1.958-0.877-1.958-1.958s0.877-1.958,1.958-1.958s1.958,0.877,1.958,1.958S223.337,198.785,222.255,198.785z    M226.797,192.785c-1.082,0-1.958-0.877-1.958-1.958s0.877-1.958,1.958-1.958c1.082,0,1.958,0.877,1.958,1.958   S227.879,192.785,226.797,192.785z M236.005,201.993c-1.795,0-3.25-1.455-3.25-3.25c0-1.795,1.455-3.25,3.25-3.25   s3.25,1.455,3.25,3.25C239.255,200.538,237.8,201.993,236.005,201.993z M245.589,210.577c-1.381,0-2.5-1.119-2.5-2.5   c0-1.381,1.119-2.5,2.5-2.5c1.381,0,2.5,1.119,2.5,2.5C248.089,209.457,246.97,210.577,245.589,210.577z"></path></g></g><g id="SvgjsG1213" featurekey="nameFeature-0" transform="matrix(1.3199731643114319,0,0,1.3199731643114319,47.99364081542311,306.89950755416)" fill="#ffc254"><path d="M12.08 18.76 c2.8 0 5.08 0.71328 6.84 2.14 s2.72 3.3267 2.88 5.7 l-5.56 0 c-0.37332 -2.3733 -1.7733 -3.56 -4.2 -3.56 c-1.4933 0 -2.6733 0.61332 -3.54 1.84 s-1.3 2.8534 -1.3 4.88 c0 1.9467 0.41332 3.52 1.24 4.72 s1.9867 1.8 3.48 1.8 c2.5867 0 4.0932 -1.4 4.52 -4.2 l5.48 0 c-0.37332 2.7467 -1.4333 4.8468 -3.18 6.3 s-4.0068 2.18 -6.78 2.18 c-3.0667 0 -5.5732 -0.98 -7.52 -2.94 s-2.92 -4.5132 -2.92 -7.66 c0 -3.4133 0.96 -6.1332 2.88 -8.16 s4.48 -3.04 7.68 -3.04 z M31.707 11.440000000000001 l0 10.76 l0.12 0 c0.64 -1.0667 1.5067 -1.9067 2.6 -2.52 s2.2533 -0.92 3.48 -0.92 c2.64 0 4.5532 0.66668 5.74 2 s1.78 3.44 1.78 6.32 l0 12.92 l-5.68 0 l0 -11.76 c0 -1.68 -0.27332 -2.9333 -0.82 -3.76 s-1.4867 -1.24 -2.82 -1.24 c-1.52 0 -2.6333 0.46 -3.34 1.38 s-1.06 2.4333 -1.06 4.54 l0 10.84 l-5.68 0 l0 -28.56 l5.68 0 z M60.174 18.76 c6.0268 0.02668 9.04 1.9866 9.04 5.88 l0 10.96 c0 2.0267 0.24 3.4934 0.72 4.4 l-5.76 0 c-0.21332 -0.64 -0.34664 -1.3067 -0.39996 -2 c-1.68 1.7067 -4 2.56 -6.96 2.56 c-2.16 0 -3.8733 -0.54668 -5.14 -1.64 s-1.9 -2.6133 -1.9 -4.56 c0 -1.8933 0.6 -3.36 1.8 -4.4 c1.2267 -1.0933 3.4534 -1.7866 6.68 -2.08 c2.2933 -0.24 3.7466 -0.54 4.36 -0.9 s0.92 -0.91332 0.92 -1.66 c0 -0.93332 -0.28 -1.6266 -0.84 -2.08 s-1.4933 -0.68 -2.8 -0.68 c-1.2 0 -2.1067 0.24668 -2.72 0.74 s-0.97332 1.2866 -1.08 2.38 l-5.68 0 c0.13332 -2.2667 1.0666 -3.9867 2.8 -5.16 s4.0532 -1.76 6.96 -1.76 z M55.454 34.12 c0 1.76 1.16 2.64 3.48 2.64 c3.04 -0.02668 4.5732 -1.5867 4.6 -4.68 l0 -2.2 c-0.45332 0.45332 -1.6 0.78664 -3.44 0.99996 c-1.6 0.18668 -2.7733 0.51336 -3.52 0.98004 s-1.12 1.22 -1.12 2.26 z M80.361 11.440000000000001 l0 28.56 l-5.68 0 l0 -28.56 l5.68 0 z M91.58800000000001 11.440000000000001 l0 28.56 l-5.68 0 l0 -28.56 l5.68 0 z M106.53500000000001 18.76 c1.9467 0 3.6801 0.45328 5.2 1.36 s2.7133 2.22 3.58 3.94 s1.3 3.7 1.3 5.94 c0 0.21332 -0.01332 0.56 -0.04 1.04 l-14.92 0 c0.05332 1.6533 0.48664 2.94 1.3 3.86 s2.06 1.38 3.74 1.38 c1.04 0 1.9933 -0.26 2.86 -0.78 s1.42 -1.1533 1.66 -1.9 l5 0 c-1.4667 4.64 -4.6932 6.96 -9.68 6.96 c-1.8933 -0.02668 -3.6466 -0.44 -5.26 -1.24 s-2.9 -2.0467 -3.86 -3.74 s-1.44 -3.66 -1.44 -5.9 c0 -2.1067 0.48668 -4.0268 1.46 -5.76 s2.2666 -3.0266 3.88 -3.88 s3.3533 -1.28 5.22 -1.28 z M110.89500000000001 27.439999999999998 c-0.26668 -1.5467 -0.76 -2.6667 -1.48 -3.36 s-1.7467 -1.04 -3.08 -1.04 c-1.3867 0 -2.48 0.39332 -3.28 1.18 s-1.2667 1.86 -1.4 3.22 l9.24 0 z M132.722 18.76 c2.64 0 4.5532 0.66676 5.74 2.0001 s1.78 3.4533 1.78 6.36 l0 12.88 l-5.68 0 l0 -11.72 c0 -1.7067 -0.27332 -2.9734 -0.82 -3.8 s-1.4867 -1.24 -2.82 -1.24 c-1.5467 0 -2.6667 0.46668 -3.36 1.4 s-1.04 2.4666 -1.04 4.6 l0 10.76 l-5.68 0 l0 -20.68 l5.4 0 l0 2.88 l0.12 0 c1.4133 -2.2933 3.5333 -3.44 6.36 -3.44 z M153.70900000000003 18.76 c2.8533 0 4.9068 1.1066 6.16 3.32 l0.08 0 l0 -2.76 l5.4 0 l0 19.4 c0 2.9867 -0.92668 5.2532 -2.78 6.8 s-4.4868 2.32 -7.9 2.32 c-2.6133 0 -4.7668 -0.62668 -6.46 -1.88 s-2.5933 -2.84 -2.7 -4.76 l5.64 0 c0.45332 1.8933 1.8666 2.84 4.24 2.84 c1.4667 0 2.5934 -0.43332 3.38 -1.3 s1.18 -2.1 1.18 -3.7 l0 -2.84 l-0.08 0 c-0.56 1.0133 -1.38 1.8 -2.46 2.36 s-2.3267 0.84 -3.74 0.84 c-2.7733 0 -4.94 -0.90668 -6.5 -2.72 s-2.34 -4.3732 -2.34 -7.68 c0 -2.9333 0.82 -5.3732 2.46 -7.32 s3.78 -2.92 6.42 -2.92 z M150.50900000000001 28.92 c0 1.9467 0.40672 3.4666 1.22 4.56 s1.94 1.64 3.38 1.64 c1.4667 0 2.64 -0.52668 3.52 -1.58 s1.32 -2.4466 1.32 -4.18 c0 -2.08 -0.42 -3.6533 -1.26 -4.72 s-2.0467 -1.6 -3.62 -1.6 c-1.4667 0 -2.5934 0.55332 -3.38 1.66 s-1.18 2.5134 -1.18 4.22 z M180.37600000000003 18.76 c1.9467 0 3.6801 0.45328 5.2 1.36 s2.7133 2.22 3.58 3.94 s1.3 3.7 1.3 5.94 c0 0.21332 -0.01332 0.56 -0.04 1.04 l-14.92 0 c0.05332 1.6533 0.48664 2.94 1.3 3.86 s2.06 1.38 3.74 1.38 c1.04 0 1.9933 -0.26 2.86 -0.78 s1.42 -1.1533 1.66 -1.9 l5 0 c-1.4667 4.64 -4.6932 6.96 -9.68 6.96 c-1.8933 -0.02668 -3.6466 -0.44 -5.26 -1.24 s-2.9 -2.0467 -3.86 -3.74 s-1.44 -3.66 -1.44 -5.9 c0 -2.1067 0.48668 -4.0268 1.46 -5.76 s2.2666 -3.0266 3.88 -3.88 s3.3533 -1.28 5.22 -1.28 z M184.73600000000005 27.439999999999998 c-0.26668 -1.5467 -0.76 -2.6667 -1.48 -3.36 s-1.7467 -1.04 -3.08 -1.04 c-1.3867 0 -2.48 0.39332 -3.28 1.18 s-1.2667 1.86 -1.4 3.22 l9.24 0 z M206.76300000000003 18.76 c0.48 0 0.89336 0.06668 1.24 0.2 l0 5.28 c-0.61332 -0.13332 -1.2933 -0.2 -2.04 -0.2 c-3.7333 0 -5.6 2.2133 -5.6 6.64 l0 9.32 l-5.68 0 l0 -20.68 l5.4 0 l0 3.84 l0.08 0 c0.56 -1.3333 1.4467 -2.4 2.66 -3.2 s2.5266 -1.2 3.94 -1.2 z"></path></g></svg>