<svg width="362.4" height="131.6496493291107" viewBox="0 0 406 147.48829367444523" class="css-1j8o68f">
<defs id="SvgjsDefs1670"></defs>
<g id="SvgjsG1671" featurekey="symbolFeature-0" transform="matrix(2.0427742369597985,0,0,2.0427742369597985,-44.475478088352816,-18.180689929685677)" fill="#000000">
<path xmlns="http://www.w3.org/2000/svg" d="M58.5,47.7c-0.2-0.2-0.4-0.3-0.6-0.4c-0.2-0.1-0.5-0.2-0.9-0.3v-1.8c0.4,0.1,0.6,0.4,0.7,0.7c0.1,0.3,0.3,0.5,0.6,0.5  c0.2,0,0.3-0.1,0.4-0.2c0.1-0.1,0.2-0.2,0.2-0.4c0-0.1,0-0.3-0.1-0.4c-0.1-0.2-0.2-0.3-0.3-0.5c-0.2-0.2-0.4-0.3-0.6-0.4  c-0.2-0.1-0.5-0.2-0.8-0.2v-0.7c0-0.2-0.1-0.4-0.3-0.4c-0.2,0-0.3,0.1-0.3,0.4v0.6c-0.6,0.1-1.1,0.2-1.4,0.6  c-0.3,0.3-0.5,0.7-0.5,1.2c0,0.4,0.1,0.7,0.2,0.9c0.2,0.2,0.4,0.4,0.6,0.6c0.3,0.1,0.6,0.3,1,0.4v2c-0.2-0.1-0.4-0.1-0.5-0.2  c-0.1-0.1-0.2-0.2-0.3-0.3c-0.1-0.1-0.1-0.3-0.2-0.5c0-0.1-0.1-0.2-0.2-0.3c-0.1-0.1-0.2-0.1-0.3-0.1c-0.2,0-0.3,0.1-0.4,0.2  c-0.1,0.1-0.2,0.2-0.2,0.4c0,0.2,0,0.4,0.1,0.6c0.1,0.2,0.2,0.4,0.4,0.6c0.2,0.2,0.4,0.3,0.6,0.5c0.3,0.1,0.6,0.2,0.9,0.2v0.8  c0,0.1,0,0.2,0.1,0.3c0,0.1,0.1,0.1,0.2,0.1c0.1,0,0.2,0,0.2-0.1c0-0.1,0.1-0.2,0.1-0.4V51c0.4,0,0.8-0.1,1.1-0.3  c0.3-0.2,0.5-0.4,0.7-0.7c0.2-0.3,0.2-0.6,0.2-0.9c0-0.3,0-0.5-0.1-0.7C58.8,48.1,58.7,47.9,58.5,47.7z M56.5,47  c-0.3-0.1-0.5-0.2-0.6-0.3c-0.1-0.1-0.2-0.3-0.2-0.5c0-0.2,0.1-0.4,0.2-0.5c0.1-0.1,0.3-0.2,0.6-0.3V47z M57.7,49.8  c-0.2,0.2-0.4,0.3-0.7,0.4v-1.9c0.3,0.1,0.5,0.2,0.7,0.4c0.2,0.1,0.2,0.3,0.2,0.6C58,49.4,57.9,49.6,57.7,49.8z M32.7,56.3  c-0.3,0.6-0.5,1-0.5,1.1c-0.2,0.3-0.5,0.5-0.8,0.5c-0.1,0-0.3,0-0.4-0.1c-0.4-0.2-0.6-0.7-0.4-1.2c0,0,0.2-0.5,0.6-1.1  c0.2-0.4,0.8-0.6,1.2-0.3C32.8,55.3,33,55.9,32.7,56.3z M35.2,51.2c0.4,0.3,0.4,0.9,0.1,1.2c-0.2,0.3-0.4,0.6-0.7,0.9  c-0.2,0.2-0.4,0.4-0.7,0.4c-0.2,0-0.4-0.1-0.5-0.2c-0.4-0.3-0.5-0.8-0.2-1.2c0.3-0.3,0.5-0.7,0.8-1C34.3,51,34.8,50.9,35.2,51.2z   M39.9,50.3c0.3,0.4,0.2,0.9-0.2,1.2c-0.2,0.1-0.3,0.2-0.5,0.2c-0.3,0-0.5-0.1-0.7-0.4l-0.1-0.1c-0.3-0.4-0.6-0.5-0.8-0.5  c-0.1,0-0.1,0-0.2,0c-0.5,0.1-0.9-0.2-1-0.7c-0.1-0.5,0.2-0.9,0.7-1c0.2,0,0.3,0,0.5,0c0.6,0,1.4,0.2,2.2,1.2L39.9,50.3z M42.8,55.2  c0.3,0.4,0.1,0.9-0.3,1.2c-0.1,0.1-0.3,0.1-0.5,0.1c-0.3,0-0.6-0.1-0.7-0.4c-0.4-0.6-0.8-1.3-1.2-2c-0.2-0.4-0.1-1,0.3-1.2  c0.4-0.2,1-0.1,1.2,0.3C42.1,54,42.4,54.6,42.8,55.2z M51.4,56.1c-0.5,0.7-1.1,1.3-1.6,1.8c-0.2,0.2-0.4,0.2-0.6,0.2  c-0.2,0-0.5-0.1-0.6-0.3c-0.3-0.3-0.3-0.9,0-1.2c0.4-0.4,0.9-1,1.4-1.6c0.3-0.4,0.8-0.5,1.2-0.2C51.6,55.2,51.7,55.7,51.4,56.1z   M47.2,58.8c0,0.5-0.3,0.9-0.8,0.9c-0.1,0-0.2,0-0.3,0c-0.8,0-1.6-0.3-2.4-0.8c-0.4-0.3-0.5-0.8-0.2-1.2c0.3-0.4,0.8-0.5,1.2-0.2  c0.5,0.4,1,0.5,1.5,0.5C46.7,58,47.2,58.4,47.2,58.8z M53.9,52.2c-0.2,0.3-0.4,0.7-0.6,1c-0.2,0.3-0.5,0.4-0.7,0.4  c-0.2,0-0.3,0-0.4-0.1c-0.4-0.2-0.5-0.8-0.3-1.2c0.2-0.3,0.4-0.7,0.6-1c0.2-0.4,0.8-0.6,1.2-0.3C54,51.2,54.1,51.8,53.9,52.2z   M44.4,35.5L44.4,35.5c6.9,0,12.4-5.6,12.4-12.5c0-2.9-0.8-4.6-1.5-5.4c-2-3.1-8.6-3.3-10.6-3.3c-0.2,0-0.3,0-0.3,0  c-6.7,0-9.6,2.1-10.5,3l-0.1,0.1c-0.2,0.2-0.2,0.3-0.2,0.3c-0.7,0.9-1.5,2.5-1.5,5.5C32.1,29.9,37.6,35.5,44.4,35.5z M34.3,18.1  c0,0,0.1-0.1,0.2-0.2l0.1-0.1c0.7-0.6,3.4-2.7,9.9-2.7c0,0,0.1,0,0.3,0c1.3,0,8.1,0.1,9.9,2.9l0,0c0.5,0.6,1.3,2.1,1.3,4.9  c0,6.4-5.1,11.6-11.5,11.6h0C38.1,34.6,33,29.4,33,23C33,20.2,33.8,18.7,34.3,18.1z M66.4,47.4c0,0-0.7-0.1-0.8-0.1  c-0.2,0-0.4,0-0.5,0c-0.1,0-0.1,0-0.2,0v-8.6c0-0.2-0.2-0.5-0.4-0.5l-2.8-0.6V25c0-1.1-0.9-2-2-2h-0.4C59,15.2,52.5,8.9,44.4,8.9  c-8,0-14.6,6.3-14.8,14.1h-0.4c-1.1,0-2,0.9-2,2v12.8c-0.3,0.8-0.6,1.5-0.8,2.4l-1.7,0.7c-0.2,0.1-0.3,0.3-0.3,0.5v5.9  c-0.2,0-0.7,0.1-0.7,0.1c-1.2,0.1-2.1,1.2-1.9,2.4l0.6,5c0.1,1.1,1,1.9,2.1,1.9V69c0,0.2,0.1,0.3,0.2,0.4c0.1,0.1,0.2,0.1,0.3,0.1  c0.1,0,0.1,0,0.2,0l7.5-2.9v11.6h0v2.9h11.6h1.3h11.6v-4c0-0.1,0-0.1,0-0.2V65.2l7.2,1.7c0,0,0.1,0,0.1,0c0.1,0,0.2,0,0.3-0.1  c0.1-0.1,0.2-0.2,0.2-0.4v-9.7c0.1,0,0.3,0,0.5,0.1c0.1,0,0.2,0,0.2,0h0c1.1,0,2-0.8,2.2-1.9l0.6-5C68.5,48.6,67.6,47.5,66.4,47.4z   M60.3,25v10.5c-1-1.4-2.3-2.7-3.8-3.8c1.5-2.1,2.5-4.6,2.7-7.3h0.5C60,24.4,60.3,24.7,60.3,25z M44.4,10.3  c7.4,0,13.4,5.9,13.4,13.1s-6,13.1-13.4,13.1C37,36.4,31,30.6,31,23.4S37,10.3,44.4,10.3z M28.6,25c0-0.4,0.3-0.7,0.7-0.7h0.5  c0.2,2.7,1.1,5.2,2.6,7.3c-1.5,1.1-2.8,2.4-3.8,3.8V25z M33.2,32.7c2.7,3.1,6.8,5.1,11.3,5.1c4.5,0,8.5-2,11.2-5.1  c1.7,1.2,3.1,2.7,4,4.3l-4-0.9c0,0-0.1,0-0.1,0c-0.1,0-0.2,0-0.2,0L44.9,41l-9.7-4.1c-0.1,0-0.1,0-0.2,0c-0.1,0-0.1,0-0.2,0  l-6.8,2.7C28.8,36.9,30.7,34.5,33.2,32.7z M23.5,54.6l-0.6-5c-0.1-0.5,0.3-1,0.9-1.1c0,0,0.7-0.1,0.8-0.1c0.1,0,0.3,0,0.4,0  c1.8,0,3.2,1.3,3.4,3.1c0.2,1.7-0.9,3.3-2.5,3.7l0,0c-0.2,0-0.8,0.1-1.3,0.2C24,55.5,23.5,55.1,23.5,54.6z M44.1,79.7H33.9v-1.6  h10.2V79.7z M33.9,76.7c0.3-2.6,2.5-4.7,5.1-4.7c2.6,0,4.8,2,5.1,4.7H33.9z M39,70.7c-2.1,0-3.9,1-5.1,2.6v-7.3l1-0.4l9.3,3.9v3.9  C43.1,71.8,41.2,70.7,39,70.7z M45.4,73.5v-3.9l10.3-4.7v8.4c-1.2-1.6-3-2.6-5.1-2.6C48.4,70.7,46.5,71.8,45.4,73.5z M55.7,76.7  H45.5c0.3-2.6,2.5-4.7,5.1-4.7C53.2,72.1,55.4,74.1,55.7,76.7z M55.7,79.7H45.5v-1.6h10.2V79.7z M63.8,65.6l-8-1.9c0,0-0.1,0-0.1,0  c-0.1,0-0.1,0-0.2,0l-10.5,4.8l-9.7-4.1c-0.1,0-0.1,0-0.2,0c-0.1,0-0.1,0-0.2,0l-9.4,3.6V56.6c0.5-0.1,0.7-0.1,0.8-0.1  c2.2-0.6,3.6-2.7,3.4-5c-0.3-2.2-2-3.9-4.2-4.1v-5.6l2.1-0.8l0.1,0c0,0,0,0,0,0l7.4-2.9l9.8,4.1c0.1,0,0.1,0,0.2,0  c0.1,0,0.2,0,0.2,0l10.6-4.8l8.1,1.9v8.4c-1.8,0.5-3.2,2-3.4,4c-0.3,2.3,1.2,4.4,3.4,5c0,0,0,0,0,0V65.6z M67.1,49.7l-0.6,5  c-0.1,0.5-0.5,0.8-0.9,0.8c0,0-0.1,0-0.1,0c-0.5-0.1-1.1-0.2-1.3-0.2l0,0c-1.6-0.5-2.7-2-2.5-3.7c0.2-1.9,1.9-3.3,3.8-3  c0.1,0,0.8,0.1,0.8,0.1C66.8,48.7,67.2,49.2,67.1,49.7z"></path></g><g id="SvgjsG1672" featurekey="textGroupContainer" transform="matrix(1,0,0,1,405,21)" fill="#000000"><rect xmlns="http://www.w3.org/2000/svg" y="0" height="1" width="1" opacity="0"></rect><rect xmlns="http://www.w3.org/2000/svg" y="0" x="-290" width="3" height="106"></rect></g><g id="SvgjsG1673" featurekey="vMvB0T-0" transform="matrix(2.1078622891899212,0,0,2.1078622891899212,131.48233670434755,35.310665038852704)" fill="#000000">
<path d="M8.66 11.78 l0 -0.24 q0 -2.96 -2.2 -2.96 q-1.26 0 -1.82 1.15 t-0.56 3.39 q0 2.22 0.7 3.3 t2.04 1.08 q0.7 0 1.55 -0.33 t1.85 -1.05 q0.5 0.34 0.93 0.93 t0.53 1.13 q-0.46 0.44 -1.07 0.83 t-1.32 0.67 t-1.48 0.45 t-1.55 0.17 q-1.54 0 -2.6 -0.59 t-1.71 -1.57 t-0.94 -2.26 t-0.29 -2.66 q0 -1.8 0.45 -3.15 t1.22 -2.25 t1.81 -1.35 t2.22 -0.45 q1.2 0 2.18 0.32 t1.67 0.88 t1.06 1.32 t0.37 1.64 q0 1.78 -1.82 1.78 q-0.54 0 -1.22 -0.18 z M21.2 11.64 l-0.02 -1.48 l0 -3.82 q0.62 -0.12 1.61 -0.12 t1.59 0.12 l0 13.66 q-0.64 0.12 -1.6 0.12 t-1.6 -0.12 l0 -4.24 l0.02 -1.48 l-1 0.02 l-2.32 0 l-1 -0.02 l0.02 1.48 l0 4.24 q-0.62 0.12 -1.6 0.12 t-1.6 -0.12 l0 -13.66 q0.62 -0.12 1.6 -0.12 t1.6 0.12 l0 3.82 l-0.02 1.48 l1 -0.02 l2.32 0 z M30.74 17.14 q-0.54 0 -0.8 -0.02 l-0.86 2.9 q-0.48 0.12 -1.34 0.12 q-0.96 0 -1.56 -0.22 l-0.1 -0.16 l4.4 -13.42 q0.78 -0.12 1.82 -0.12 q1.18 0 1.88 0.14 l4.32 13.44 q-0.7 0.38 -1.58 0.38 q-1.04 0 -1.46 -0.36 t-0.72 -1.38 l-0.38 -1.32 q-0.26 0.02 -0.78 0.02 l-2.84 0 z M30.68 14.620000000000001 l0.8 -0.02 l1.46 0 q0.1 0 0.35 0.01 t0.37 0.01 l-0.34 -1.24 q-0.48 -1.68 -1.1 -4.12 l-0.12 0 q-0.16 0.86 -0.96 3.82 z M45.239999999999995 17.3 l3.46 0 q0 0.8 -0.1 1.37 t-0.64 0.98 t-1.42 0.41 l-4.52 0 q-0.86 0 -1.36 -0.5 t-0.5 -1.36 l0 -11.86 l0.14 -0.14 l1.18 0 q1.88 0 1.88 2.04 l0 9.14 q0.88 -0.08 1.88 -0.08 z M55.67999999999999 17.3 l3.46 0 q0 0.8 -0.1 1.37 t-0.64 0.98 t-1.42 0.41 l-4.52 0 q-0.86 0 -1.36 -0.5 t-0.5 -1.36 l0 -11.86 l0.14 -0.14 l1.18 0 q1.88 0 1.88 2.04 l0 9.14 q0.88 -0.08 1.88 -0.08 z M64.19999999999999 15.96 l-0.02 1.44 l0 0.02 q0.92 -0.04 1.48 -0.04 l4.64 0 q0 0.74 -0.06 1.14 q-0.24 1.54 -2.04 1.54 l-5.32 0 q-0.86 0 -1.35 -0.5 t-0.49 -1.36 l0 -11.72 l0.14 -0.14 l8.62 0 q0.12 0.58 0.12 1.26 t-0.28 1.42 l-5.46 0 l0.02 1.44 l0 1.4 q0.52 -0.02 1.36 -0.02 l3.06 0 q0.18 0.56 0.18 1.28 t-0.18 1.32 l-4.42 0 l0 1.52 z M83.28 6.199999999999999 l0.14 0.14 l0 13.6 q-0.8 0.18 -1.89 0.18 t-1.93 -0.12 l-3.14 -7.16 q-0.56 -1.22 -1.14 -2.82 l-0.06 0.02 q0.24 2.92 0.24 5.98 l0 3.98 q-0.62 0.12 -1.5 0.12 t-1.48 -0.12 l0 -13.6 q0.76 -0.18 1.83 -0.18 t1.91 0.12 l3.1 7.14 q0.84 1.98 1.24 3.04 l0.08 -0.04 q-0.24 -2.78 -0.24 -5.9 l0 -2.44 q0 -1.04 0.42 -1.49 t1.36 -0.45 l1.06 0 z M91.72 12.24 l3.14 -0.02 q2.12 0 2.12 2 l0 5.26 q-2.58 0.82 -5.42 0.82 q-1.44 0 -2.55 -0.48 t-1.86 -1.38 t-1.13 -2.21 t-0.38 -2.97 q0 -1.82 0.53 -3.17 t1.42 -2.25 t2.05 -1.35 t2.42 -0.45 q2.6 0 4.88 1.44 q-0.02 0.32 -0.15 0.65 t-0.32 0.64 t-0.44 0.56 t-0.51 0.43 q-1.66 -1.08 -3.36 -1.08 q-3.26 0 -3.26 4.56 q0 4.54 3.34 4.54 q0.46 0 0.89 -0.04 t0.85 -0.12 l0 -1.34 q0 -0.46 0.01 -0.8 t0.03 -0.58 l-1 0 q-0.86 0 -1.19 -0.33 t-0.33 -1.03 q0 -0.6 0.22 -1.3 z M102.66 15.96 l-0.02 1.44 l0 0.02 q0.92 -0.04 1.48 -0.04 l4.64 0 q0 0.74 -0.06 1.14 q-0.24 1.54 -2.04 1.54 l-5.32 0 q-0.86 0 -1.35 -0.5 t-0.49 -1.36 l0 -11.72 l0.14 -0.14 l8.62 0 q0.12 0.58 0.12 1.26 t-0.28 1.42 l-5.46 0 l0.02 1.44 l0 1.4 q0.52 -0.02 1.36 -0.02 l3.06 0 q0.18 0.56 0.18 1.28 t-0.18 1.32 l-4.42 0 l0 1.52 z M120.78 10.56 q0 0.66 -0.2 1.25 t-0.53 1.06 t-0.78 0.82 t-0.93 0.53 q1.04 0.38 1.54 1.84 l0.6 1.7 q0.34 1 1 1.48 q-0.3 0.4 -0.9 0.67 t-1.32 0.27 t-1.12 -0.41 t-0.74 -1.43 l-0.72 -2.1 q-0.22 -0.6 -0.59 -0.92 t-1.11 -0.32 l-0.82 0 l0 5 q-0.64 0.12 -1.6 0.12 t-1.58 -0.12 l0 -13.56 l0.14 -0.14 q1.74 -0.04 2.93 -0.06 t1.87 -0.02 q1.1 0 2 0.27 t1.53 0.81 t0.98 1.36 t0.35 1.9 z M114.16000000000001 8.62 l0 3.92 q0.9 0 1.54 -0.03 t1.03 -0.24 t0.59 -0.59 t0.2 -1.1 q0 -1.94 -1.88 -1.94 l-0.83 0 t-0.65 -0.02 z"></path></g><g id="SvgjsG1674" featurekey="sloganFeature-0" transform="matrix(0.87244495979639,0,0,0.87244495979639,131.62153578204143,83.41093972779836)" fill="#000000">
<path d="M10.94 5.640000000000001 l1.94 0 l0 9.32 c0 2.94 -1.84 5.42 -5.78 5.42 c-3.86 0 -5.52 -2.48 -5.52 -5.16 l0 -9.58 l1.94 0 l0 9.04 c0 3.12 1.9 3.98 3.64 3.98 c1.78 0 3.78 -0.82 3.78 -3.94 l0 -9.08 z M28.811999999999998 17.240000000000002 l0 -11.6 l1.88 0 l0 14.36 l-2.18 0 l-7.3 -11.6 l-0.04 0 l0 11.6 l-1.88 0 l0 -14.36 l2.3 0 l7.18 11.6 l0.04 0 z M49.024 9.96 l-1.88 0 c-0.54 -2.52 -2.64 -2.98 -4.02 -2.98 c-2.6 0 -4.7 1.92 -4.7 5.7 c0 3.38 1.2 5.98 4.76 5.98 c1.26 0 3.44 -0.6 4.1 -3.94 l1.88 0 c-0.8 5.42 -5.2 5.66 -6.28 5.66 c-3.26 0 -6.46 -2.12 -6.46 -7.64 c0 -4.42 2.52 -7.48 6.7 -7.48 c3.7 0 5.62 2.3 5.9 4.7 z M64.29599999999999 11.58 l0 -5.94 l1.94 0 l0 14.36 l-1.94 0 l0 -6.7 l-7.5 0 l0 6.7 l-1.94 0 l0 -14.36 l1.94 0 l0 5.94 l7.5 0 z M80.62799999999999 15.82 l-5.76 0 l-1.5 4.18 l-2 0 l5.4 -14.36 l2.2 0 l5.2 14.36 l-2.12 0 z M75.46799999999999 14.1 l4.46 0 l-2.12 -6.32 l-0.04 0 z M91.46 13.84 l0 6.16 l-1.94 0 l0 -14.36 l6.64 0 c2.36 0 4.72 0.82 4.72 3.86 c0 2.12 -1.08 2.9 -2 3.44 c0.82 0.34 1.64 0.7 1.72 2.7 l0.12 2.6 c0.02 0.8 0.12 1.1 0.72 1.44 l0 0.32 l-2.38 0 c-0.28 -0.88 -0.34 -3.06 -0.34 -3.6 c0 -1.18 -0.24 -2.56 -2.56 -2.56 l-4.7 0 z M91.46 7.300000000000001 l0 4.88 l4.5 0 c1.42 0 2.92 -0.36 2.92 -2.48 c0 -2.22 -1.62 -2.4 -2.58 -2.4 l-4.84 0 z M105.81199999999998 7.359999999999999 l0 -1.72 l11.66 0 l0 1.72 l-4.86 0 l0 12.64 l-1.94 0 l0 -12.64 l-4.86 0 z M133.404 18.28 l0 1.72 l-10.6 0 l0 -14.36 l10.46 0 l0 1.72 l-8.52 0 l0 4.4 l7.86 0 l0 1.72 l-7.86 0 l0 4.8 l8.66 0 z M139.376 20 l0 -14.36 l5.82 0 c3.74 0 6.04 2.84 6.04 6.98 c0 3.22 -1.4 7.38 -6.12 7.38 l-5.74 0 z M141.316 7.300000000000001 l0 11.04 l3.76 0 c2.52 0 4.16 -1.98 4.16 -5.6 s-1.66 -5.44 -4.3 -5.44 l-3.62 0 z M168.07999999999998 7.300000000000001 l0 4.98 l3.86 0 c1.74 0 2.92 -0.64 2.92 -2.58 c0 -1.82 -1.24 -2.4 -2.84 -2.4 l-3.94 0 z M168.07999999999998 13.940000000000001 l0 6.06 l-1.94 0 l0 -14.36 l6.46 0 c2.66 0 4.26 1.72 4.26 4.04 c0 2 -1.14 4.26 -4.26 4.26 l-4.52 0 z M190.63199999999998 15.82 l-5.76 0 l-1.5 4.18 l-2 0 l5.4 -14.36 l2.2 0 l5.2 14.36 l-2.12 0 z M185.47199999999998 14.1 l4.46 0 l-2.12 -6.32 l-0.04 0 z M198.04399999999998 7.359999999999999 l0 -1.72 l11.66 0 l0 1.72 l-4.86 0 l0 12.64 l-1.94 0 l0 -12.64 l-4.86 0 z M224.29599999999996 11.58 l0 -5.94 l1.94 0 l0 14.36 l-1.94 0 l0 -6.7 l-7.5 0 l0 6.7 l-1.94 0 l0 -14.36 l1.94 0 l0 5.94 l7.5 0 z"></path>
</g>
</svg>